<?xml version="1.0" encoding="UTF-8" standalone="no"?>
<!DOCTYPE svg PUBLIC "-//W3C//DTD SVG 1.1//EN"
 "http://www.w3.org/Graphics/SVG/1.1/DTD/svg11.dtd">
<!-- Generated by graphviz version 2.43.0 (0)
 -->
<!-- Title: %3 Pages: 1 -->
<svg width="399pt" height="341pt"
 viewBox="0.00 0.00 399.50 340.91" xmlns="http://www.w3.org/2000/svg" xmlns:xlink="http://www.w3.org/1999/xlink">
<g id="graph0" class="graph" transform="scale(1 1) rotate(0) translate(4 336.91)">
<title>%3</title>
<polygon fill="white" stroke="transparent" points="-4,4 -4,-336.91 395.5,-336.91 395.5,4 -4,4"/>
<g id="clust1" class="cluster">
<title>cluster41605</title>
<path fill="none" stroke="black" d="M20,-8C20,-8 148,-8 148,-8 154,-8 160,-14 160,-20 160,-20 160,-301.93 160,-301.93 160,-307.93 154,-313.93 148,-313.93 148,-313.93 20,-313.93 20,-313.93 14,-313.93 8,-307.93 8,-301.93 8,-301.93 8,-20 8,-20 8,-14 14,-8 20,-8"/>
<text text-anchor="middle" x="129" y="-15.8" font-family="Times,serif" font-size="14.00">41605</text>
</g>
<g id="clust2" class="cluster">
<title>cluster3</title>
<path fill="none" stroke="black" d="M180,-210.95C180,-210.95 270,-210.95 270,-210.95 276,-210.95 282,-216.95 282,-222.95 282,-222.95 282,-312.91 282,-312.91 282,-318.91 276,-324.91 270,-324.91 270,-324.91 180,-324.91 180,-324.91 174,-324.91 168,-318.91 168,-312.91 168,-312.91 168,-222.95 168,-222.95 168,-216.95 174,-210.95 180,-210.95"/>
<text text-anchor="middle" x="269" y="-218.75" font-family="Times,serif" font-size="14.00">3</text>
</g>
<!-- party3 -->
<g id="node1" class="node">
<title>party3</title>
<path fill="lightgrey" stroke="black" d="M140,-305.93C140,-305.93 100,-305.93 100,-305.93 94,-305.93 88,-299.93 88,-293.93 88,-293.93 88,-264.93 88,-264.93 88,-258.93 94,-252.93 100,-252.93 100,-252.93 140,-252.93 140,-252.93 146,-252.93 152,-258.93 152,-264.93 152,-264.93 152,-293.93 152,-293.93 152,-299.93 146,-305.93 140,-305.93"/>
<text text-anchor="middle" x="120" y="-290.73" font-family="Times,serif" font-size="14.00">party3</text>
<text text-anchor="middle" x="120" y="-275.73" font-family="Times,serif" font-size="14.00">~</text>
<text text-anchor="middle" x="120" y="-260.73" font-family="Times,serif" font-size="14.00">Data</text>
</g>
<!-- p -->
<g id="node3" class="node">
<title>p</title>
<polygon fill="none" stroke="black" points="152,-202.95 38,-202.95 38,-149.95 152,-149.95 152,-202.95"/>
<text text-anchor="middle" x="95" y="-187.75" font-family="Times,serif" font-size="14.00">p</text>
<text text-anchor="middle" x="95" y="-172.75" font-family="Times,serif" font-size="14.00">~</text>
<text text-anchor="middle" x="95" y="-157.75" font-family="Times,serif" font-size="14.00">Deterministic</text>
</g>
<!-- party3&#45;&gt;p -->
<g id="edge1" class="edge">
<title>party3&#45;&gt;p</title>
<path fill="none" stroke="black" d="M113.63,-252.69C110.66,-240.7 107.08,-226.24 103.85,-213.21"/>
<polygon fill="black" stroke="black" points="107.16,-212.01 101.36,-203.15 100.37,-213.7 107.16,-212.01"/>
</g>
<!-- y_obs -->
<g id="node2" class="node">
<title>y_obs</title>
<ellipse fill="lightgrey" stroke="black" cx="94" cy="-76.48" rx="57.97" ry="37.45"/>
<text text-anchor="middle" x="94" y="-87.78" font-family="Times,serif" font-size="14.00">y_obs</text>
<text text-anchor="middle" x="94" y="-72.78" font-family="Times,serif" font-size="14.00">~</text>
<text text-anchor="middle" x="94" y="-57.78" font-family="Times,serif" font-size="14.00">Bernoulli</text>
</g>
<!-- p&#45;&gt;y_obs -->
<g id="edge5" class="edge">
<title>p&#45;&gt;y_obs</title>
<path fill="none" stroke="black" d="M94.74,-149.71C94.66,-141.89 94.57,-133.03 94.48,-124.27"/>
<polygon fill="black" stroke="black" points="97.98,-124.06 94.37,-114.1 90.98,-124.13 97.98,-124.06"/>
</g>
<!-- year -->
<g id="node4" class="node">
<title>year</title>
<path fill="lightgrey" stroke="black" d="M58,-305.93C58,-305.93 28,-305.93 28,-305.93 22,-305.93 16,-299.93 16,-293.93 16,-293.93 16,-264.93 16,-264.93 16,-258.93 22,-252.93 28,-252.93 28,-252.93 58,-252.93 58,-252.93 64,-252.93 70,-258.93 70,-264.93 70,-264.93 70,-293.93 70,-293.93 70,-299.93 64,-305.93 58,-305.93"/>
<text text-anchor="middle" x="43" y="-290.73" font-family="Times,serif" font-size="14.00">year</text>
<text text-anchor="middle" x="43" y="-275.73" font-family="Times,serif" font-size="14.00">~</text>
<text text-anchor="middle" x="43" y="-260.73" font-family="Times,serif" font-size="14.00">Data</text>
</g>
<!-- year&#45;&gt;p -->
<g id="edge4" class="edge">
<title>year&#45;&gt;p</title>
<path fill="none" stroke="black" d="M56.26,-252.69C62.61,-240.34 70.32,-225.38 77.18,-212.06"/>
<polygon fill="black" stroke="black" points="80.3,-213.64 81.77,-203.15 74.08,-210.44 80.3,-213.64"/>
</g>
<!-- alpha -->
<g id="node5" class="node">
<title>alpha</title>
<ellipse fill="none" stroke="black" cx="225" cy="-279.43" rx="49.49" ry="37.45"/>
<text text-anchor="middle" x="225" y="-290.73" font-family="Times,serif" font-size="14.00">alpha</text>
<text text-anchor="middle" x="225" y="-275.73" font-family="Times,serif" font-size="14.00">~</text>
<text text-anchor="middle" x="225" y="-260.73" font-family="Times,serif" font-size="14.00">Normal</text>
</g>
<!-- alpha&#45;&gt;p -->
<g id="edge3" class="edge">
<title>alpha&#45;&gt;p</title>
<path fill="none" stroke="black" d="M200.5,-246.43C190.15,-234.3 177.39,-221 164,-210.95 162.95,-210.17 161.88,-209.39 160.79,-208.63"/>
<polygon fill="black" stroke="black" points="162.44,-205.52 152.15,-202.99 158.62,-211.38 162.44,-205.52"/>
</g>
<!-- beta -->
<g id="node6" class="node">
<title>beta</title>
<ellipse fill="none" stroke="black" cx="342" cy="-279.43" rx="49.49" ry="37.45"/>
<text text-anchor="middle" x="342" y="-290.73" font-family="Times,serif" font-size="14.00">beta</text>
<text text-anchor="middle" x="342" y="-275.73" font-family="Times,serif" font-size="14.00">~</text>
<text text-anchor="middle" x="342" y="-260.73" font-family="Times,serif" font-size="14.00">Normal</text>
</g>
<!-- beta&#45;&gt;p -->
<g id="edge2" class="edge">
<title>beta&#45;&gt;p</title>
<path fill="none" stroke="black" d="M321.75,-245.12C312.41,-232.5 300.22,-219.21 286,-210.95 248.58,-189.24 200.59,-180.88 162.08,-177.95"/>
<polygon fill="black" stroke="black" points="162.21,-174.45 152,-177.28 161.75,-181.43 162.21,-174.45"/>
</g>
</g>
</svg>