<?xml version="1.0" encoding="UTF-8" standalone="no"?>
<!DOCTYPE svg PUBLIC "-//W3C//DTD SVG 1.1//EN"
 "http://www.w3.org/Graphics/SVG/1.1/DTD/svg11.dtd">
<!-- Generated by graphviz version 2.43.0 (0)
 -->
<!-- Title: %3 Pages: 1 -->
<svg width="434pt" height="260pt"
 viewBox="0.00 0.00 433.57 259.91" xmlns="http://www.w3.org/2000/svg" xmlns:xlink="http://www.w3.org/1999/xlink">
<g id="graph0" class="graph" transform="scale(1 1) rotate(0) translate(4 255.91)">
<title>%3</title>
<polygon fill="white" stroke="transparent" points="-4,4 -4,-255.91 429.57,-255.91 429.57,4 -4,4"/>
<g id="clust1" class="cluster">
<title>cluster2</title>
<path fill="none" stroke="black" d="M20,-129.95C20,-129.95 130,-129.95 130,-129.95 136,-129.95 142,-135.95 142,-141.95 142,-141.95 142,-231.91 142,-231.91 142,-237.91 136,-243.91 130,-243.91 130,-243.91 20,-243.91 20,-243.91 14,-243.91 8,-237.91 8,-231.91 8,-231.91 8,-141.95 8,-141.95 8,-135.95 14,-129.95 20,-129.95"/>
<text text-anchor="middle" x="129" y="-137.75" font-family="Times,serif" font-size="14.00">2</text>
</g>
<g id="clust2" class="cluster">
<title>cluster66958</title>
<path fill="none" stroke="black" d="M158,-8C158,-8 288,-8 288,-8 294,-8 300,-14 300,-20 300,-20 300,-109.95 300,-109.95 300,-115.95 294,-121.95 288,-121.95 288,-121.95 158,-121.95 158,-121.95 152,-121.95 146,-115.95 146,-109.95 146,-109.95 146,-20 146,-20 146,-14 152,-8 158,-8"/>
<text text-anchor="middle" x="269" y="-15.8" font-family="Times,serif" font-size="14.00">66958</text>
</g>
<!-- cutpoints -->
<g id="node1" class="node">
<title>cutpoints</title>
<ellipse fill="none" stroke="black" cx="75" cy="-198.43" rx="58.88" ry="37.45"/>
<text text-anchor="middle" x="75" y="-209.73" font-family="Times,serif" font-size="14.00">cutpoints</text>
<text text-anchor="middle" x="75" y="-194.73" font-family="Times,serif" font-size="14.00">~</text>
<text text-anchor="middle" x="75" y="-179.73" font-family="Times,serif" font-size="14.00">Normal</text>
</g>
<!-- y_obs -->
<g id="node4" class="node">
<title>y_obs</title>
<ellipse fill="lightgrey" stroke="black" cx="223" cy="-76.48" rx="69.09" ry="37.45"/>
<text text-anchor="middle" x="223" y="-87.78" font-family="Times,serif" font-size="14.00">y_obs</text>
<text text-anchor="middle" x="223" y="-72.78" font-family="Times,serif" font-size="14.00">~</text>
<text text-anchor="middle" x="223" y="-57.78" font-family="Times,serif" font-size="14.00">Categorical</text>
</g>
<!-- cutpoints&#45;&gt;y_obs -->
<g id="edge1" class="edge">
<title>cutpoints&#45;&gt;y_obs</title>
<path fill="none" stroke="black" d="M104.24,-165.83C115.82,-154.02 129.56,-140.84 143,-129.95 151.12,-123.38 160.07,-116.86 168.97,-110.78"/>
<polygon fill="black" stroke="black" points="171.1,-113.57 177.45,-105.09 167.2,-107.75 171.1,-113.57"/>
</g>
<!-- beta_cohort -->
<g id="node2" class="node">
<title>beta_cohort</title>
<ellipse fill="none" stroke="black" cx="223" cy="-198.43" rx="71.34" ry="37.45"/>
<text text-anchor="middle" x="223" y="-209.73" font-family="Times,serif" font-size="14.00">beta_cohort</text>
<text text-anchor="middle" x="223" y="-194.73" font-family="Times,serif" font-size="14.00">~</text>
<text text-anchor="middle" x="223" y="-179.73" font-family="Times,serif" font-size="14.00">Normal</text>
</g>
<!-- beta_cohort&#45;&gt;y_obs -->
<g id="edge2" class="edge">
<title>beta_cohort&#45;&gt;y_obs</title>
<path fill="none" stroke="black" d="M223,-160.79C223,-149.38 223,-136.65 223,-124.63"/>
<polygon fill="black" stroke="black" points="226.5,-124.31 223,-114.31 219.5,-124.31 226.5,-124.31"/>
</g>
<!-- beta_age -->
<g id="node3" class="node">
<title>beta_age</title>
<ellipse fill="none" stroke="black" cx="369" cy="-198.43" rx="56.64" ry="37.45"/>
<text text-anchor="middle" x="369" y="-209.73" font-family="Times,serif" font-size="14.00">beta_age</text>
<text text-anchor="middle" x="369" y="-194.73" font-family="Times,serif" font-size="14.00">~</text>
<text text-anchor="middle" x="369" y="-179.73" font-family="Times,serif" font-size="14.00">Normal</text>
</g>
<!-- beta_age&#45;&gt;y_obs -->
<g id="edge3" class="edge">
<title>beta_age&#45;&gt;y_obs</title>
<path fill="none" stroke="black" d="M340.75,-165.77C329.52,-153.95 316.16,-140.78 303,-129.95 294.93,-123.32 286,-116.77 277.11,-110.68"/>
<polygon fill="black" stroke="black" points="278.89,-107.65 268.64,-104.98 274.99,-113.46 278.89,-107.65"/>
</g>
</g>
</svg>