<?xml version="1.0" encoding="UTF-8" standalone="no"?>
<!DOCTYPE svg PUBLIC "-//W3C//DTD SVG 1.1//EN"
 "http://www.w3.org/Graphics/SVG/1.1/DTD/svg11.dtd">
<!-- Generated by graphviz version 2.43.0 (0)
 -->
<!-- Title: %3 Pages: 1 -->
<svg width="270pt" height="260pt"
 viewBox="0.00 0.00 270.00 259.91" xmlns="http://www.w3.org/2000/svg" xmlns:xlink="http://www.w3.org/1999/xlink">
<g id="graph0" class="graph" transform="scale(1 1) rotate(0) translate(4 255.91)">
<title>%3</title>
<polygon fill="white" stroke="transparent" points="-4,4 -4,-255.91 266,-255.91 266,4 -4,4"/>
<g id="clust1" class="cluster">
<title>cluster2</title>
<path fill="none" stroke="black" d="M20,-129.95C20,-129.95 242,-129.95 242,-129.95 248,-129.95 254,-135.95 254,-141.95 254,-141.95 254,-231.91 254,-231.91 254,-237.91 248,-243.91 242,-243.91 242,-243.91 20,-243.91 20,-243.91 14,-243.91 8,-237.91 8,-231.91 8,-231.91 8,-141.95 8,-141.95 8,-135.95 14,-129.95 20,-129.95"/>
<text text-anchor="middle" x="241" y="-137.75" font-family="Times,serif" font-size="14.00">2</text>
</g>
<g id="clust2" class="cluster">
<title>cluster2185</title>
<path fill="none" stroke="black" d="M63,-8C63,-8 193,-8 193,-8 199,-8 205,-14 205,-20 205,-20 205,-109.95 205,-109.95 205,-115.95 199,-121.95 193,-121.95 193,-121.95 63,-121.95 63,-121.95 57,-121.95 51,-115.95 51,-109.95 51,-109.95 51,-20 51,-20 51,-14 57,-8 63,-8"/>
<text text-anchor="middle" x="178.5" y="-15.8" font-family="Times,serif" font-size="14.00">2185</text>
</g>
<!-- alpha -->
<g id="node1" class="node">
<title>alpha</title>
<ellipse fill="none" stroke="black" cx="197" cy="-198.43" rx="49.49" ry="37.45"/>
<text text-anchor="middle" x="197" y="-209.73" font-family="Times,serif" font-size="14.00">alpha</text>
<text text-anchor="middle" x="197" y="-194.73" font-family="Times,serif" font-size="14.00">~</text>
<text text-anchor="middle" x="197" y="-179.73" font-family="Times,serif" font-size="14.00">Normal</text>
</g>
<!-- y_obs -->
<g id="node3" class="node">
<title>y_obs</title>
<ellipse fill="lightgrey" stroke="black" cx="128" cy="-76.48" rx="69.09" ry="37.45"/>
<text text-anchor="middle" x="128" y="-87.78" font-family="Times,serif" font-size="14.00">y_obs</text>
<text text-anchor="middle" x="128" y="-72.78" font-family="Times,serif" font-size="14.00">~</text>
<text text-anchor="middle" x="128" y="-57.78" font-family="Times,serif" font-size="14.00">Categorical</text>
</g>
<!-- alpha&#45;&gt;y_obs -->
<g id="edge1" class="edge">
<title>alpha&#45;&gt;y_obs</title>
<path fill="none" stroke="black" d="M177.6,-163.7C170.08,-150.62 161.36,-135.48 153.36,-121.56"/>
<polygon fill="black" stroke="black" points="156.24,-119.55 148.22,-112.63 150.17,-123.04 156.24,-119.55"/>
</g>
<!-- beta_age -->
<g id="node2" class="node">
<title>beta_age</title>
<ellipse fill="none" stroke="black" cx="73" cy="-198.43" rx="56.64" ry="37.45"/>
<text text-anchor="middle" x="73" y="-209.73" font-family="Times,serif" font-size="14.00">beta_age</text>
<text text-anchor="middle" x="73" y="-194.73" font-family="Times,serif" font-size="14.00">~</text>
<text text-anchor="middle" x="73" y="-179.73" font-family="Times,serif" font-size="14.00">Normal</text>
</g>
<!-- beta_age&#45;&gt;y_obs -->
<g id="edge2" class="edge">
<title>beta_age&#45;&gt;y_obs</title>
<path fill="none" stroke="black" d="M89.06,-162.41C94.77,-149.95 101.29,-135.73 107.34,-122.54"/>
<polygon fill="black" stroke="black" points="110.65,-123.71 111.64,-113.16 104.29,-120.79 110.65,-123.71"/>
</g>
</g>
</svg>