<?xml version="1.0" encoding="UTF-8" standalone="no"?>
<!DOCTYPE svg PUBLIC "-//W3C//DTD SVG 1.1//EN"
 "http://www.w3.org/Graphics/SVG/1.1/DTD/svg11.dtd">
<!-- Generated by graphviz version 2.43.0 (0)
 -->
<!-- Title: %3 Pages: 1 -->
<svg width="270pt" height="260pt"
 viewBox="0.00 0.00 270.00 259.91" xmlns="http://www.w3.org/2000/svg" xmlns:xlink="http://www.w3.org/1999/xlink">
<g id="graph0" class="graph" transform="scale(1 1) rotate(0) translate(4 255.91)">
<title>%3</title>
<polygon fill="white" stroke="transparent" points="-4,4 -4,-255.91 266,-255.91 266,4 -4,4"/>
<g id="clust1" class="cluster">
<title>cluster2</title>
<path fill="none" stroke="black" d="M20,-129.95C20,-129.95 242,-129.95 242,-129.95 248,-129.95 254,-135.95 254,-141.95 254,-141.95 254,-231.91 254,-231.91 254,-237.91 248,-243.91 242,-243.91 242,-243.91 20,-243.91 20,-243.91 14,-243.91 8,-237.91 8,-231.91 8,-231.91 8,-141.95 8,-141.95 8,-135.95 14,-129.95 20,-129.95"/>
<text text-anchor="middle" x="241" y="-137.75" font-family="Times,serif" font-size="14.00">2</text>
</g>
<g id="clust2" class="cluster">
<title>cluster2185</title>
<path fill="none" stroke="black" d="M61,-8C61,-8 191,-8 191,-8 197,-8 203,-14 203,-20 203,-20 203,-109.95 203,-109.95 203,-115.95 197,-121.95 191,-121.95 191,-121.95 61,-121.95 61,-121.95 55,-121.95 49,-115.95 49,-109.95 49,-109.95 49,-20 49,-20 49,-14 55,-8 61,-8"/>
<text text-anchor="middle" x="176.5" y="-15.8" font-family="Times,serif" font-size="14.00">2185</text>
</g>
<!-- beta_age -->
<g id="node1" class="node">
<title>beta_age</title>
<ellipse fill="none" stroke="black" cx="189" cy="-198.43" rx="56.64" ry="37.45"/>
<text text-anchor="middle" x="189" y="-209.73" font-family="Times,serif" font-size="14.00">beta_age</text>
<text text-anchor="middle" x="189" y="-194.73" font-family="Times,serif" font-size="14.00">~</text>
<text text-anchor="middle" x="189" y="-179.73" font-family="Times,serif" font-size="14.00">Normal</text>
</g>
<!-- y_obs -->
<g id="node3" class="node">
<title>y_obs</title>
<ellipse fill="lightgrey" stroke="black" cx="126" cy="-76.48" rx="69.09" ry="37.45"/>
<text text-anchor="middle" x="126" y="-87.78" font-family="Times,serif" font-size="14.00">y_obs</text>
<text text-anchor="middle" x="126" y="-72.78" font-family="Times,serif" font-size="14.00">~</text>
<text text-anchor="middle" x="126" y="-57.78" font-family="Times,serif" font-size="14.00">Categorical</text>
</g>
<!-- beta_age&#45;&gt;y_obs -->
<g id="edge1" class="edge">
<title>beta_age&#45;&gt;y_obs</title>
<path fill="none" stroke="black" d="M170.78,-162.73C164.1,-150.03 156.46,-135.47 149.4,-122.02"/>
<polygon fill="black" stroke="black" points="152.37,-120.15 144.62,-112.93 146.17,-123.41 152.37,-120.15"/>
</g>
<!-- alpha -->
<g id="node2" class="node">
<title>alpha</title>
<ellipse fill="none" stroke="black" cx="65" cy="-198.43" rx="49.49" ry="37.45"/>
<text text-anchor="middle" x="65" y="-209.73" font-family="Times,serif" font-size="14.00">alpha</text>
<text text-anchor="middle" x="65" y="-194.73" font-family="Times,serif" font-size="14.00">~</text>
<text text-anchor="middle" x="65" y="-179.73" font-family="Times,serif" font-size="14.00">Normal</text>
</g>
<!-- alpha&#45;&gt;y_obs -->
<g id="edge2" class="edge">
<title>alpha&#45;&gt;y_obs</title>
<path fill="none" stroke="black" d="M82.48,-163.06C89,-150.23 96.5,-135.48 103.42,-121.88"/>
<polygon fill="black" stroke="black" points="106.68,-123.19 108.09,-112.69 100.44,-120.02 106.68,-123.19"/>
</g>
</g>
</svg>