<?xml version="1.0" encoding="UTF-8" standalone="no"?>
<!DOCTYPE svg PUBLIC "-//W3C//DTD SVG 1.1//EN"
 "http://www.w3.org/Graphics/SVG/1.1/DTD/svg11.dtd">
<!-- Generated by graphviz version 2.43.0 (0)
 -->
<!-- Title: %3 Pages: 1 -->
<svg width="437pt" height="260pt"
 viewBox="0.00 0.00 437.00 259.91" xmlns="http://www.w3.org/2000/svg" xmlns:xlink="http://www.w3.org/1999/xlink">
<g id="graph0" class="graph" transform="scale(1 1) rotate(0) translate(4 255.91)">
<title>%3</title>
<polygon fill="white" stroke="transparent" points="-4,4 -4,-255.91 433,-255.91 433,4 -4,4"/>
<g id="clust1" class="cluster">
<title>cluster2</title>
<path fill="none" stroke="black" d="M20,-129.95C20,-129.95 409,-129.95 409,-129.95 415,-129.95 421,-135.95 421,-141.95 421,-141.95 421,-231.91 421,-231.91 421,-237.91 415,-243.91 409,-243.91 409,-243.91 20,-243.91 20,-243.91 14,-243.91 8,-237.91 8,-231.91 8,-231.91 8,-141.95 8,-141.95 8,-135.95 14,-129.95 20,-129.95"/>
<text text-anchor="middle" x="408" y="-137.75" font-family="Times,serif" font-size="14.00">2</text>
</g>
<g id="clust2" class="cluster">
<title>cluster2168</title>
<path fill="none" stroke="black" d="M132,-8C132,-8 262,-8 262,-8 268,-8 274,-14 274,-20 274,-20 274,-109.95 274,-109.95 274,-115.95 268,-121.95 262,-121.95 262,-121.95 132,-121.95 132,-121.95 126,-121.95 120,-115.95 120,-109.95 120,-109.95 120,-20 120,-20 120,-14 126,-8 132,-8"/>
<text text-anchor="middle" x="247.5" y="-15.8" font-family="Times,serif" font-size="14.00">2168</text>
</g>
<!-- beta_gender -->
<g id="node1" class="node">
<title>beta_gender</title>
<ellipse fill="none" stroke="black" cx="339" cy="-198.43" rx="74.49" ry="37.45"/>
<text text-anchor="middle" x="339" y="-209.73" font-family="Times,serif" font-size="14.00">beta_gender</text>
<text text-anchor="middle" x="339" y="-194.73" font-family="Times,serif" font-size="14.00">~</text>
<text text-anchor="middle" x="339" y="-179.73" font-family="Times,serif" font-size="14.00">Normal</text>
</g>
<!-- y_obs -->
<g id="node4" class="node">
<title>y_obs</title>
<ellipse fill="lightgrey" stroke="black" cx="197" cy="-76.48" rx="69.09" ry="37.45"/>
<text text-anchor="middle" x="197" y="-87.78" font-family="Times,serif" font-size="14.00">y_obs</text>
<text text-anchor="middle" x="197" y="-72.78" font-family="Times,serif" font-size="14.00">~</text>
<text text-anchor="middle" x="197" y="-57.78" font-family="Times,serif" font-size="14.00">Categorical</text>
</g>
<!-- beta_gender&#45;&gt;y_obs -->
<g id="edge1" class="edge">
<title>beta_gender&#45;&gt;y_obs</title>
<path fill="none" stroke="black" d="M301.69,-165.91C283.2,-150.3 260.75,-131.33 241.38,-114.97"/>
<polygon fill="black" stroke="black" points="243.47,-112.15 233.57,-108.37 238.95,-117.49 243.47,-112.15"/>
</g>
<!-- alpha -->
<g id="node2" class="node">
<title>alpha</title>
<ellipse fill="none" stroke="black" cx="197" cy="-198.43" rx="49.49" ry="37.45"/>
<text text-anchor="middle" x="197" y="-209.73" font-family="Times,serif" font-size="14.00">alpha</text>
<text text-anchor="middle" x="197" y="-194.73" font-family="Times,serif" font-size="14.00">~</text>
<text text-anchor="middle" x="197" y="-179.73" font-family="Times,serif" font-size="14.00">Normal</text>
</g>
<!-- alpha&#45;&gt;y_obs -->
<g id="edge2" class="edge">
<title>alpha&#45;&gt;y_obs</title>
<path fill="none" stroke="black" d="M197,-160.79C197,-149.38 197,-136.65 197,-124.63"/>
<polygon fill="black" stroke="black" points="200.5,-124.31 197,-114.31 193.5,-124.31 200.5,-124.31"/>
</g>
<!-- beta_age -->
<g id="node3" class="node">
<title>beta_age</title>
<ellipse fill="none" stroke="black" cx="73" cy="-198.43" rx="56.64" ry="37.45"/>
<text text-anchor="middle" x="73" y="-209.73" font-family="Times,serif" font-size="14.00">beta_age</text>
<text text-anchor="middle" x="73" y="-194.73" font-family="Times,serif" font-size="14.00">~</text>
<text text-anchor="middle" x="73" y="-179.73" font-family="Times,serif" font-size="14.00">Normal</text>
</g>
<!-- beta_age&#45;&gt;y_obs -->
<g id="edge3" class="edge">
<title>beta_age&#45;&gt;y_obs</title>
<path fill="none" stroke="black" d="M102.84,-166.13C114.03,-154.61 126.95,-141.54 139,-129.95 143.87,-125.27 149.03,-120.43 154.19,-115.67"/>
<polygon fill="black" stroke="black" points="156.71,-118.11 161.72,-108.77 151.98,-112.95 156.71,-118.11"/>
</g>
</g>
</svg>