<?xml version="1.0" encoding="UTF-8" standalone="no"?>
<!DOCTYPE svg PUBLIC "-//W3C//DTD SVG 1.1//EN"
 "http://www.w3.org/Graphics/SVG/1.1/DTD/svg11.dtd">
<!-- Generated by graphviz version 2.43.0 (0)
 -->
<!-- Title: %3 Pages: 1 -->
<svg width="224pt" height="233pt"
 viewBox="0.00 0.00 223.99 232.91" xmlns="http://www.w3.org/2000/svg" xmlns:xlink="http://www.w3.org/1999/xlink">
<g id="graph0" class="graph" transform="scale(1 1) rotate(0) translate(4 228.91)">
<title>%3</title>
<polygon fill="white" stroke="transparent" points="-4,4 -4,-228.91 219.99,-228.91 219.99,4 -4,4"/>
<g id="clust1" class="cluster">
<title>cluster42639</title>
<path fill="none" stroke="black" d="M53.5,-8C53.5,-8 161.5,-8 161.5,-8 167.5,-8 173.5,-14 173.5,-20 173.5,-20 173.5,-109.95 173.5,-109.95 173.5,-115.95 167.5,-121.95 161.5,-121.95 161.5,-121.95 53.5,-121.95 53.5,-121.95 47.5,-121.95 41.5,-115.95 41.5,-109.95 41.5,-109.95 41.5,-20 41.5,-20 41.5,-14 47.5,-8 53.5,-8"/>
<text text-anchor="middle" x="142.5" y="-15.8" font-family="Times,serif" font-size="14.00">42639</text>
</g>
<!-- beta -->
<g id="node1" class="node">
<title>beta</title>
<ellipse fill="none" stroke="black" cx="49.5" cy="-187.43" rx="49.49" ry="37.45"/>
<text text-anchor="middle" x="49.5" y="-198.73" font-family="Times,serif" font-size="14.00">beta</text>
<text text-anchor="middle" x="49.5" y="-183.73" font-family="Times,serif" font-size="14.00">~</text>
<text text-anchor="middle" x="49.5" y="-168.73" font-family="Times,serif" font-size="14.00">Normal</text>
</g>
<!-- y_obs -->
<g id="node3" class="node">
<title>y_obs</title>
<ellipse fill="lightgrey" stroke="black" cx="107.5" cy="-76.48" rx="57.97" ry="37.45"/>
<text text-anchor="middle" x="107.5" y="-87.78" font-family="Times,serif" font-size="14.00">y_obs</text>
<text text-anchor="middle" x="107.5" y="-72.78" font-family="Times,serif" font-size="14.00">~</text>
<text text-anchor="middle" x="107.5" y="-57.78" font-family="Times,serif" font-size="14.00">Bernoulli</text>
</g>
<!-- beta&#45;&gt;y_obs -->
<g id="edge1" class="edge">
<title>beta&#45;&gt;y_obs</title>
<path fill="none" stroke="black" d="M67.69,-152.26C72.93,-142.41 78.72,-131.53 84.23,-121.19"/>
<polygon fill="black" stroke="black" points="87.36,-122.75 88.97,-112.28 81.18,-119.46 87.36,-122.75"/>
</g>
<!-- alpha -->
<g id="node2" class="node">
<title>alpha</title>
<ellipse fill="none" stroke="black" cx="166.5" cy="-187.43" rx="49.49" ry="37.45"/>
<text text-anchor="middle" x="166.5" y="-198.73" font-family="Times,serif" font-size="14.00">alpha</text>
<text text-anchor="middle" x="166.5" y="-183.73" font-family="Times,serif" font-size="14.00">~</text>
<text text-anchor="middle" x="166.5" y="-168.73" font-family="Times,serif" font-size="14.00">Normal</text>
</g>
<!-- alpha&#45;&gt;y_obs -->
<g id="edge2" class="edge">
<title>alpha&#45;&gt;y_obs</title>
<path fill="none" stroke="black" d="M148.15,-152.55C142.76,-142.6 136.79,-131.57 131.12,-121.1"/>
<polygon fill="black" stroke="black" points="134.08,-119.21 126.24,-112.08 127.92,-122.54 134.08,-119.21"/>
</g>
</g>
</svg>