<?xml version="1.0" encoding="UTF-8" standalone="no"?>
<!DOCTYPE svg PUBLIC "-//W3C//DTD SVG 1.1//EN"
 "http://www.w3.org/Graphics/SVG/1.1/DTD/svg11.dtd">
<!-- Generated by graphviz version 2.43.0 (0)
 -->
<!-- Title: %3 Pages: 1 -->
<svg width="200pt" height="260pt"
 viewBox="0.00 0.00 200.00 259.91" xmlns="http://www.w3.org/2000/svg" xmlns:xlink="http://www.w3.org/1999/xlink">
<g id="graph0" class="graph" transform="scale(1 1) rotate(0) translate(4 255.91)">
<title>%3</title>
<polygon fill="white" stroke="transparent" points="-4,4 -4,-255.91 196,-255.91 196,4 -4,4"/>
<g id="clust1" class="cluster">
<title>cluster2 x 5</title>
<path fill="none" stroke="black" d="M20,-129.95C20,-129.95 172,-129.95 172,-129.95 178,-129.95 184,-135.95 184,-141.95 184,-141.95 184,-231.91 184,-231.91 184,-237.91 178,-243.91 172,-243.91 172,-243.91 20,-243.91 20,-243.91 14,-243.91 8,-237.91 8,-231.91 8,-231.91 8,-141.95 8,-141.95 8,-135.95 14,-129.95 20,-129.95"/>
<text text-anchor="middle" x="158" y="-137.75" font-family="Times,serif" font-size="14.00">2 x 5</text>
</g>
<g id="clust2" class="cluster">
<title>cluster2299</title>
<path fill="none" stroke="black" d="M31,-8C31,-8 161,-8 161,-8 167,-8 173,-14 173,-20 173,-20 173,-109.95 173,-109.95 173,-115.95 167,-121.95 161,-121.95 161,-121.95 31,-121.95 31,-121.95 25,-121.95 19,-115.95 19,-109.95 19,-109.95 19,-20 19,-20 19,-14 25,-8 31,-8"/>
<text text-anchor="middle" x="146.5" y="-15.8" font-family="Times,serif" font-size="14.00">2299</text>
</g>
<!-- alpha_gender -->
<g id="node1" class="node">
<title>alpha_gender</title>
<ellipse fill="none" stroke="black" cx="96" cy="-198.43" rx="79.81" ry="37.45"/>
<text text-anchor="middle" x="96" y="-209.73" font-family="Times,serif" font-size="14.00">alpha_gender</text>
<text text-anchor="middle" x="96" y="-194.73" font-family="Times,serif" font-size="14.00">~</text>
<text text-anchor="middle" x="96" y="-179.73" font-family="Times,serif" font-size="14.00">Normal</text>
</g>
<!-- y_obs -->
<g id="node2" class="node">
<title>y_obs</title>
<ellipse fill="lightgrey" stroke="black" cx="96" cy="-76.48" rx="69.09" ry="37.45"/>
<text text-anchor="middle" x="96" y="-87.78" font-family="Times,serif" font-size="14.00">y_obs</text>
<text text-anchor="middle" x="96" y="-72.78" font-family="Times,serif" font-size="14.00">~</text>
<text text-anchor="middle" x="96" y="-57.78" font-family="Times,serif" font-size="14.00">Categorical</text>
</g>
<!-- alpha_gender&#45;&gt;y_obs -->
<g id="edge1" class="edge">
<title>alpha_gender&#45;&gt;y_obs</title>
<path fill="none" stroke="black" d="M96,-160.79C96,-149.38 96,-136.65 96,-124.63"/>
<polygon fill="black" stroke="black" points="99.5,-124.31 96,-114.31 92.5,-124.31 99.5,-124.31"/>
</g>
</g>
</svg>