<?xml version="1.0" encoding="UTF-8" standalone="no"?>
<!DOCTYPE svg PUBLIC "-//W3C//DTD SVG 1.1//EN"
 "http://www.w3.org/Graphics/SVG/1.1/DTD/svg11.dtd">
<!-- Generated by graphviz version 2.43.0 (0)
 -->
<!-- Title: %3 Pages: 1 -->
<svg width="239pt" height="260pt"
 viewBox="0.00 0.00 239.50 259.91" xmlns="http://www.w3.org/2000/svg" xmlns:xlink="http://www.w3.org/1999/xlink">
<g id="graph0" class="graph" transform="scale(1 1) rotate(0) translate(4 255.91)">
<title>%3</title>
<polygon fill="white" stroke="transparent" points="-4,4 -4,-255.91 235.5,-255.91 235.5,4 -4,4"/>
<g id="clust1" class="cluster">
<title>cluster3</title>
<path fill="none" stroke="black" d="M20,-129.95C20,-129.95 110,-129.95 110,-129.95 116,-129.95 122,-135.95 122,-141.95 122,-141.95 122,-231.91 122,-231.91 122,-237.91 116,-243.91 110,-243.91 110,-243.91 20,-243.91 20,-243.91 14,-243.91 8,-237.91 8,-231.91 8,-231.91 8,-141.95 8,-141.95 8,-135.95 14,-129.95 20,-129.95"/>
<text text-anchor="middle" x="109" y="-137.75" font-family="Times,serif" font-size="14.00">3</text>
</g>
<g id="clust2" class="cluster">
<title>cluster41605</title>
<path fill="none" stroke="black" d="M43,-8C43,-8 151,-8 151,-8 157,-8 163,-14 163,-20 163,-20 163,-109.95 163,-109.95 163,-115.95 157,-121.95 151,-121.95 151,-121.95 43,-121.95 43,-121.95 37,-121.95 31,-115.95 31,-109.95 31,-109.95 31,-20 31,-20 31,-14 37,-8 43,-8"/>
<text text-anchor="middle" x="132" y="-15.8" font-family="Times,serif" font-size="14.00">41605</text>
</g>
<!-- alpha -->
<g id="node1" class="node">
<title>alpha</title>
<ellipse fill="none" stroke="black" cx="65" cy="-198.43" rx="49.49" ry="37.45"/>
<text text-anchor="middle" x="65" y="-209.73" font-family="Times,serif" font-size="14.00">alpha</text>
<text text-anchor="middle" x="65" y="-194.73" font-family="Times,serif" font-size="14.00">~</text>
<text text-anchor="middle" x="65" y="-179.73" font-family="Times,serif" font-size="14.00">Normal</text>
</g>
<!-- y_obs -->
<g id="node3" class="node">
<title>y_obs</title>
<ellipse fill="lightgrey" stroke="black" cx="97" cy="-76.48" rx="57.97" ry="37.45"/>
<text text-anchor="middle" x="97" y="-87.78" font-family="Times,serif" font-size="14.00">y_obs</text>
<text text-anchor="middle" x="97" y="-72.78" font-family="Times,serif" font-size="14.00">~</text>
<text text-anchor="middle" x="97" y="-57.78" font-family="Times,serif" font-size="14.00">Bernoulli</text>
</g>
<!-- alpha&#45;&gt;y_obs -->
<g id="edge1" class="edge">
<title>alpha&#45;&gt;y_obs</title>
<path fill="none" stroke="black" d="M74.6,-161.44C77.8,-149.46 81.4,-135.95 84.77,-123.33"/>
<polygon fill="black" stroke="black" points="88.21,-124.01 87.41,-113.44 81.45,-122.2 88.21,-124.01"/>
</g>
<!-- beta -->
<g id="node2" class="node">
<title>beta</title>
<ellipse fill="none" stroke="black" cx="182" cy="-198.43" rx="49.49" ry="37.45"/>
<text text-anchor="middle" x="182" y="-209.73" font-family="Times,serif" font-size="14.00">beta</text>
<text text-anchor="middle" x="182" y="-194.73" font-family="Times,serif" font-size="14.00">~</text>
<text text-anchor="middle" x="182" y="-179.73" font-family="Times,serif" font-size="14.00">Normal</text>
</g>
<!-- beta&#45;&gt;y_obs -->
<g id="edge2" class="edge">
<title>beta&#45;&gt;y_obs</title>
<path fill="none" stroke="black" d="M159,-164.97C148.96,-150.8 137.07,-134.02 126.4,-118.96"/>
<polygon fill="black" stroke="black" points="129.25,-116.94 120.61,-110.8 123.54,-120.98 129.25,-116.94"/>
</g>
</g>
</svg>