<?xml version="1.0" encoding="UTF-8" standalone="no"?>
<!DOCTYPE svg PUBLIC "-//W3C//DTD SVG 1.1//EN"
 "http://www.w3.org/Graphics/SVG/1.1/DTD/svg11.dtd">
<!-- Generated by graphviz version 2.43.0 (0)
 -->
<!-- Title: %3 Pages: 1 -->
<svg width="437pt" height="260pt"
 viewBox="0.00 0.00 437.00 259.91" xmlns="http://www.w3.org/2000/svg" xmlns:xlink="http://www.w3.org/1999/xlink">
<g id="graph0" class="graph" transform="scale(1 1) rotate(0) translate(4 255.91)">
<title>%3</title>
<polygon fill="white" stroke="transparent" points="-4,4 -4,-255.91 433,-255.91 433,4 -4,4"/>
<g id="clust1" class="cluster">
<title>cluster2</title>
<path fill="none" stroke="black" d="M20,-129.95C20,-129.95 409,-129.95 409,-129.95 415,-129.95 421,-135.95 421,-141.95 421,-141.95 421,-231.91 421,-231.91 421,-237.91 415,-243.91 409,-243.91 409,-243.91 20,-243.91 20,-243.91 14,-243.91 8,-237.91 8,-231.91 8,-231.91 8,-141.95 8,-141.95 8,-135.95 14,-129.95 20,-129.95"/>
<text text-anchor="middle" x="408" y="-137.75" font-family="Times,serif" font-size="14.00">2</text>
</g>
<g id="clust2" class="cluster">
<title>cluster2168</title>
<path fill="none" stroke="black" d="M167,-8C167,-8 297,-8 297,-8 303,-8 309,-14 309,-20 309,-20 309,-109.95 309,-109.95 309,-115.95 303,-121.95 297,-121.95 297,-121.95 167,-121.95 167,-121.95 161,-121.95 155,-115.95 155,-109.95 155,-109.95 155,-20 155,-20 155,-14 161,-8 167,-8"/>
<text text-anchor="middle" x="282.5" y="-15.8" font-family="Times,serif" font-size="14.00">2168</text>
</g>
<!-- beta_age -->
<g id="node1" class="node">
<title>beta_age</title>
<ellipse fill="none" stroke="black" cx="356" cy="-198.43" rx="56.64" ry="37.45"/>
<text text-anchor="middle" x="356" y="-209.73" font-family="Times,serif" font-size="14.00">beta_age</text>
<text text-anchor="middle" x="356" y="-194.73" font-family="Times,serif" font-size="14.00">~</text>
<text text-anchor="middle" x="356" y="-179.73" font-family="Times,serif" font-size="14.00">Normal</text>
</g>
<!-- y_obs -->
<g id="node4" class="node">
<title>y_obs</title>
<ellipse fill="lightgrey" stroke="black" cx="232" cy="-76.48" rx="69.09" ry="37.45"/>
<text text-anchor="middle" x="232" y="-87.78" font-family="Times,serif" font-size="14.00">y_obs</text>
<text text-anchor="middle" x="232" y="-72.78" font-family="Times,serif" font-size="14.00">~</text>
<text text-anchor="middle" x="232" y="-57.78" font-family="Times,serif" font-size="14.00">Categorical</text>
</g>
<!-- beta_age&#45;&gt;y_obs -->
<g id="edge1" class="edge">
<title>beta_age&#45;&gt;y_obs</title>
<path fill="none" stroke="black" d="M326.16,-166.13C314.97,-154.61 302.05,-141.54 290,-129.95 285.13,-125.27 279.97,-120.43 274.81,-115.67"/>
<polygon fill="black" stroke="black" points="277.02,-112.95 267.28,-108.77 272.29,-118.11 277.02,-112.95"/>
</g>
<!-- alpha -->
<g id="node2" class="node">
<title>alpha</title>
<ellipse fill="none" stroke="black" cx="232" cy="-198.43" rx="49.49" ry="37.45"/>
<text text-anchor="middle" x="232" y="-209.73" font-family="Times,serif" font-size="14.00">alpha</text>
<text text-anchor="middle" x="232" y="-194.73" font-family="Times,serif" font-size="14.00">~</text>
<text text-anchor="middle" x="232" y="-179.73" font-family="Times,serif" font-size="14.00">Normal</text>
</g>
<!-- alpha&#45;&gt;y_obs -->
<g id="edge2" class="edge">
<title>alpha&#45;&gt;y_obs</title>
<path fill="none" stroke="black" d="M232,-160.79C232,-149.38 232,-136.65 232,-124.63"/>
<polygon fill="black" stroke="black" points="235.5,-124.31 232,-114.31 228.5,-124.31 235.5,-124.31"/>
</g>
<!-- beta_gender -->
<g id="node3" class="node">
<title>beta_gender</title>
<ellipse fill="none" stroke="black" cx="90" cy="-198.43" rx="74.49" ry="37.45"/>
<text text-anchor="middle" x="90" y="-209.73" font-family="Times,serif" font-size="14.00">beta_gender</text>
<text text-anchor="middle" x="90" y="-194.73" font-family="Times,serif" font-size="14.00">~</text>
<text text-anchor="middle" x="90" y="-179.73" font-family="Times,serif" font-size="14.00">Normal</text>
</g>
<!-- beta_gender&#45;&gt;y_obs -->
<g id="edge3" class="edge">
<title>beta_gender&#45;&gt;y_obs</title>
<path fill="none" stroke="black" d="M127.31,-165.91C145.8,-150.3 168.25,-131.33 187.62,-114.97"/>
<polygon fill="black" stroke="black" points="190.05,-117.49 195.43,-108.37 185.53,-112.15 190.05,-117.49"/>
</g>
</g>
</svg>