<?xml version="1.0" encoding="UTF-8" standalone="no"?>
<!DOCTYPE svg PUBLIC "-//W3C//DTD SVG 1.1//EN"
 "http://www.w3.org/Graphics/SVG/1.1/DTD/svg11.dtd">
<!-- Generated by graphviz version 2.43.0 (0)
 -->
<!-- Title: %3 Pages: 1 -->
<svg width="413pt" height="341pt"
 viewBox="0.00 0.00 413.50 340.91" xmlns="http://www.w3.org/2000/svg" xmlns:xlink="http://www.w3.org/1999/xlink">
<g id="graph0" class="graph" transform="scale(1 1) rotate(0) translate(4 336.91)">
<title>%3</title>
<polygon fill="white" stroke="transparent" points="-4,4 -4,-336.91 409.5,-336.91 409.5,4 -4,4"/>
<g id="clust1" class="cluster">
<title>cluster41605</title>
<path fill="none" stroke="black" d="M20,-8C20,-8 162,-8 162,-8 168,-8 174,-14 174,-20 174,-20 174,-301.93 174,-301.93 174,-307.93 168,-313.93 162,-313.93 162,-313.93 20,-313.93 20,-313.93 14,-313.93 8,-307.93 8,-301.93 8,-301.93 8,-20 8,-20 8,-14 14,-8 20,-8"/>
<text text-anchor="middle" x="143" y="-15.8" font-family="Times,serif" font-size="14.00">41605</text>
</g>
<g id="clust2" class="cluster">
<title>cluster3</title>
<path fill="none" stroke="black" d="M194,-210.95C194,-210.95 284,-210.95 284,-210.95 290,-210.95 296,-216.95 296,-222.95 296,-222.95 296,-312.91 296,-312.91 296,-318.91 290,-324.91 284,-324.91 284,-324.91 194,-324.91 194,-324.91 188,-324.91 182,-318.91 182,-312.91 182,-312.91 182,-222.95 182,-222.95 182,-216.95 188,-210.95 194,-210.95"/>
<text text-anchor="middle" x="283" y="-218.75" font-family="Times,serif" font-size="14.00">3</text>
</g>
<!-- year -->
<g id="node1" class="node">
<title>year</title>
<path fill="lightgrey" stroke="black" d="M154,-305.93C154,-305.93 124,-305.93 124,-305.93 118,-305.93 112,-299.93 112,-293.93 112,-293.93 112,-264.93 112,-264.93 112,-258.93 118,-252.93 124,-252.93 124,-252.93 154,-252.93 154,-252.93 160,-252.93 166,-258.93 166,-264.93 166,-264.93 166,-293.93 166,-293.93 166,-299.93 160,-305.93 154,-305.93"/>
<text text-anchor="middle" x="139" y="-290.73" font-family="Times,serif" font-size="14.00">year</text>
<text text-anchor="middle" x="139" y="-275.73" font-family="Times,serif" font-size="14.00">~</text>
<text text-anchor="middle" x="139" y="-260.73" font-family="Times,serif" font-size="14.00">Data</text>
</g>
<!-- p -->
<g id="node2" class="node">
<title>p</title>
<polygon fill="none" stroke="black" points="166,-202.95 52,-202.95 52,-149.95 166,-149.95 166,-202.95"/>
<text text-anchor="middle" x="109" y="-187.75" font-family="Times,serif" font-size="14.00">p</text>
<text text-anchor="middle" x="109" y="-172.75" font-family="Times,serif" font-size="14.00">~</text>
<text text-anchor="middle" x="109" y="-157.75" font-family="Times,serif" font-size="14.00">Deterministic</text>
</g>
<!-- year&#45;&gt;p -->
<g id="edge2" class="edge">
<title>year&#45;&gt;p</title>
<path fill="none" stroke="black" d="M131.35,-252.69C127.76,-240.58 123.41,-225.95 119.51,-212.83"/>
<polygon fill="black" stroke="black" points="122.84,-211.74 116.63,-203.15 116.13,-213.73 122.84,-211.74"/>
</g>
<!-- y_obs -->
<g id="node3" class="node">
<title>y_obs</title>
<ellipse fill="lightgrey" stroke="black" cx="108" cy="-76.48" rx="57.97" ry="37.45"/>
<text text-anchor="middle" x="108" y="-87.78" font-family="Times,serif" font-size="14.00">y_obs</text>
<text text-anchor="middle" x="108" y="-72.78" font-family="Times,serif" font-size="14.00">~</text>
<text text-anchor="middle" x="108" y="-57.78" font-family="Times,serif" font-size="14.00">Bernoulli</text>
</g>
<!-- p&#45;&gt;y_obs -->
<g id="edge5" class="edge">
<title>p&#45;&gt;y_obs</title>
<path fill="none" stroke="black" d="M108.74,-149.71C108.66,-141.89 108.57,-133.03 108.48,-124.27"/>
<polygon fill="black" stroke="black" points="111.98,-124.06 108.37,-114.1 104.98,-124.13 111.98,-124.06"/>
</g>
<!-- partyid3 -->
<g id="node4" class="node">
<title>partyid3</title>
<path fill="lightgrey" stroke="black" d="M81.5,-305.93C81.5,-305.93 28.5,-305.93 28.5,-305.93 22.5,-305.93 16.5,-299.93 16.5,-293.93 16.5,-293.93 16.5,-264.93 16.5,-264.93 16.5,-258.93 22.5,-252.93 28.5,-252.93 28.5,-252.93 81.5,-252.93 81.5,-252.93 87.5,-252.93 93.5,-258.93 93.5,-264.93 93.5,-264.93 93.5,-293.93 93.5,-293.93 93.5,-299.93 87.5,-305.93 81.5,-305.93"/>
<text text-anchor="middle" x="55" y="-290.73" font-family="Times,serif" font-size="14.00">partyid3</text>
<text text-anchor="middle" x="55" y="-275.73" font-family="Times,serif" font-size="14.00">~</text>
<text text-anchor="middle" x="55" y="-260.73" font-family="Times,serif" font-size="14.00">Data</text>
</g>
<!-- partyid3&#45;&gt;p -->
<g id="edge4" class="edge">
<title>partyid3&#45;&gt;p</title>
<path fill="none" stroke="black" d="M68.77,-252.69C75.37,-240.34 83.37,-225.38 90.49,-212.06"/>
<polygon fill="black" stroke="black" points="93.63,-213.62 95.26,-203.15 87.46,-210.32 93.63,-213.62"/>
</g>
<!-- alpha -->
<g id="node5" class="node">
<title>alpha</title>
<ellipse fill="none" stroke="black" cx="239" cy="-279.43" rx="49.49" ry="37.45"/>
<text text-anchor="middle" x="239" y="-290.73" font-family="Times,serif" font-size="14.00">alpha</text>
<text text-anchor="middle" x="239" y="-275.73" font-family="Times,serif" font-size="14.00">~</text>
<text text-anchor="middle" x="239" y="-260.73" font-family="Times,serif" font-size="14.00">Normal</text>
</g>
<!-- alpha&#45;&gt;p -->
<g id="edge1" class="edge">
<title>alpha&#45;&gt;p</title>
<path fill="none" stroke="black" d="M214.5,-246.43C204.15,-234.3 191.39,-221 178,-210.95 176.95,-210.17 175.88,-209.39 174.79,-208.63"/>
<polygon fill="black" stroke="black" points="176.44,-205.52 166.15,-202.99 172.62,-211.38 176.44,-205.52"/>
</g>
<!-- beta -->
<g id="node6" class="node">
<title>beta</title>
<ellipse fill="none" stroke="black" cx="356" cy="-279.43" rx="49.49" ry="37.45"/>
<text text-anchor="middle" x="356" y="-290.73" font-family="Times,serif" font-size="14.00">beta</text>
<text text-anchor="middle" x="356" y="-275.73" font-family="Times,serif" font-size="14.00">~</text>
<text text-anchor="middle" x="356" y="-260.73" font-family="Times,serif" font-size="14.00">Normal</text>
</g>
<!-- beta&#45;&gt;p -->
<g id="edge3" class="edge">
<title>beta&#45;&gt;p</title>
<path fill="none" stroke="black" d="M335.75,-245.12C326.41,-232.5 314.22,-219.21 300,-210.95 262.58,-189.24 214.59,-180.88 176.08,-177.95"/>
<polygon fill="black" stroke="black" points="176.21,-174.45 166,-177.28 175.75,-181.43 176.21,-174.45"/>
</g>
</g>
</svg>