<?xml version="1.0" encoding="UTF-8" standalone="no"?>
<!DOCTYPE svg PUBLIC "-//W3C//DTD SVG 1.1//EN"
 "http://www.w3.org/Graphics/SVG/1.1/DTD/svg11.dtd">
<!-- Generated by graphviz version 2.43.0 (0)
 -->
<!-- Title: %3 Pages: 1 -->
<svg width="273pt" height="260pt"
 viewBox="0.00 0.00 272.57 259.91" xmlns="http://www.w3.org/2000/svg" xmlns:xlink="http://www.w3.org/1999/xlink">
<g id="graph0" class="graph" transform="scale(1 1) rotate(0) translate(4 255.91)">
<title>%3</title>
<polygon fill="white" stroke="transparent" points="-4,4 -4,-255.91 268.57,-255.91 268.57,4 -4,4"/>
<g id="clust1" class="cluster">
<title>cluster2</title>
<path fill="none" stroke="black" d="M20,-129.95C20,-129.95 130,-129.95 130,-129.95 136,-129.95 142,-135.95 142,-141.95 142,-141.95 142,-231.91 142,-231.91 142,-237.91 136,-243.91 130,-243.91 130,-243.91 20,-243.91 20,-243.91 14,-243.91 8,-237.91 8,-231.91 8,-231.91 8,-141.95 8,-141.95 8,-135.95 14,-129.95 20,-129.95"/>
<text text-anchor="middle" x="129" y="-137.75" font-family="Times,serif" font-size="14.00">2</text>
</g>
<g id="clust2" class="cluster">
<title>cluster66959</title>
<path fill="none" stroke="black" d="M46,-8C46,-8 176,-8 176,-8 182,-8 188,-14 188,-20 188,-20 188,-109.95 188,-109.95 188,-115.95 182,-121.95 176,-121.95 176,-121.95 46,-121.95 46,-121.95 40,-121.95 34,-115.95 34,-109.95 34,-109.95 34,-20 34,-20 34,-14 40,-8 46,-8"/>
<text text-anchor="middle" x="157" y="-15.8" font-family="Times,serif" font-size="14.00">66959</text>
</g>
<!-- cutpoints -->
<g id="node1" class="node">
<title>cutpoints</title>
<ellipse fill="none" stroke="black" cx="75" cy="-198.43" rx="58.88" ry="37.45"/>
<text text-anchor="middle" x="75" y="-209.73" font-family="Times,serif" font-size="14.00">cutpoints</text>
<text text-anchor="middle" x="75" y="-194.73" font-family="Times,serif" font-size="14.00">~</text>
<text text-anchor="middle" x="75" y="-179.73" font-family="Times,serif" font-size="14.00">Normal</text>
</g>
<!-- y_obs -->
<g id="node3" class="node">
<title>y_obs</title>
<ellipse fill="lightgrey" stroke="black" cx="111" cy="-76.48" rx="69.09" ry="37.45"/>
<text text-anchor="middle" x="111" y="-87.78" font-family="Times,serif" font-size="14.00">y_obs</text>
<text text-anchor="middle" x="111" y="-72.78" font-family="Times,serif" font-size="14.00">~</text>
<text text-anchor="middle" x="111" y="-57.78" font-family="Times,serif" font-size="14.00">Categorical</text>
</g>
<!-- cutpoints&#45;&gt;y_obs -->
<g id="edge1" class="edge">
<title>cutpoints&#45;&gt;y_obs</title>
<path fill="none" stroke="black" d="M85.8,-161.44C89.36,-149.57 93.38,-136.2 97.14,-123.67"/>
<polygon fill="black" stroke="black" points="100.56,-124.44 100.08,-113.86 93.86,-122.43 100.56,-124.44"/>
</g>
<!-- beta_age -->
<g id="node2" class="node">
<title>beta_age</title>
<ellipse fill="none" stroke="black" cx="208" cy="-198.43" rx="56.64" ry="37.45"/>
<text text-anchor="middle" x="208" y="-209.73" font-family="Times,serif" font-size="14.00">beta_age</text>
<text text-anchor="middle" x="208" y="-194.73" font-family="Times,serif" font-size="14.00">~</text>
<text text-anchor="middle" x="208" y="-179.73" font-family="Times,serif" font-size="14.00">Normal</text>
</g>
<!-- beta_age&#45;&gt;y_obs -->
<g id="edge2" class="edge">
<title>beta_age&#45;&gt;y_obs</title>
<path fill="none" stroke="black" d="M181.75,-164.97C170.39,-150.92 156.95,-134.3 144.85,-119.33"/>
<polygon fill="black" stroke="black" points="147.3,-116.79 138.29,-111.22 141.85,-121.2 147.3,-116.79"/>
</g>
</g>
</svg>